<svg width="75" height="32" viewBox="0 0 75 32" fill="none" xmlns="http://www.w3.org/2000/svg">
<path d="M55.5418 15.3099C55.6293 15.2966 55.7187 15.3028 55.8035 15.3281C55.8883 15.3535 55.9664 15.3972 56.0322 15.4563C56.098 15.5154 56.1499 15.5883 56.184 15.6698C56.2182 15.7513 56.2338 15.8393 56.2297 15.9275C56.2297 16.3804 56.0233 16.6687 55.5418 17.3C53.602 19.6882 50.2588 23.2294 45.6775 23.2294C44.3018 23.2294 43.1599 22.1588 43.1599 20.3471C43.1599 20.1 42.9535 19.9765 42.9535 19.5235C42.9722 19.2952 43.0559 19.077 43.1949 18.8946C43.3338 18.7122 43.5222 18.5732 43.7377 18.4941C45.3061 14.8295 48.1539 13.004 50.3001 13.004C50.7423 12.9926 51.1726 13.147 51.5063 13.4366C51.8399 13.7263 52.0526 14.1302 52.1024 14.5687C52.1024 16.7098 48.6629 19.1392 45.9114 19.7569C45.3749 19.8804 45.2235 20.1686 45.2235 20.4431C45.2486 20.7308 45.375 21.0002 45.5802 21.2037C45.7855 21.4072 46.0563 21.5317 46.3448 21.5549C49.7842 21.5549 52.577 18.3843 54.0629 16.5726C54.5581 15.9687 55.0947 15.3099 55.5418 15.3099ZM45.7669 18.2745C47.2872 17.9863 50.0387 15.9687 50.0387 15.2687C50.0387 15.0216 49.9562 14.8569 49.7085 14.8569C48.7386 14.8569 46.5511 17.0393 45.7669 18.2745Z" fill="#0C6DFF"/>
<path d="M57.1951 13.5774C57.0408 14.3142 56.8099 15.033 56.5061 15.7219C58.2011 13.9898 59.7307 12.6701 60.8055 12.6701C61.0169 12.6513 61.2298 12.6788 61.4293 12.7509C61.6288 12.8229 61.8101 12.9376 61.9605 13.0869C62.1109 13.2363 62.2266 13.4166 62.2997 13.6153C62.3727 13.8141 62.4013 14.0263 62.3834 14.2373C62.3834 15.612 62.0526 16.8355 60.8538 16.8355C60.7444 16.8383 60.6356 16.8189 60.534 16.7784C60.4324 16.738 60.3401 16.6773 60.2628 16.6002C60.1854 16.523 60.1246 16.431 60.0841 16.3296C60.0435 16.2282 60.0241 16.1197 60.0269 16.0106C60.103 15.6345 60.1996 15.2628 60.3163 14.8971C60.3163 14.7734 60.275 14.6909 60.0683 14.6909C59.5309 14.6909 56.8851 17.2066 55.5208 19.1862C55.0375 19.9374 54.6291 20.7339 54.3013 21.5644C53.9705 22.3893 53.6123 23.1728 53.3504 23.1728C53.0754 23.1634 52.8135 23.0529 52.6151 22.8626C52.4167 22.6723 52.2958 22.4156 52.2756 22.1418C52.5453 20.8746 52.9614 19.6429 53.5158 18.4713C54.08 17.1922 54.5768 15.8844 55.0041 14.5534C55.3348 13.4812 55.6242 12.8626 56.2856 12.8626C56.823 12.8351 57.1951 13.1238 57.1951 13.5774Z" fill="#0C6DFF"/>
<path d="M59.9169 20.7713C60.4433 20.7713 60.6689 21.1097 60.6689 21.6361C60.6689 22.3881 60.0422 23.516 59.0145 23.516C58.9033 23.5196 58.7927 23.499 58.6902 23.4557C58.5877 23.4124 58.4958 23.3475 58.4207 23.2653C58.3457 23.1832 58.2894 23.0857 58.2556 22.9797C58.2218 22.8737 58.2114 22.7617 58.225 22.6512C58.2361 22.1875 58.4128 21.743 58.7231 21.3982C59.0334 21.0534 59.4569 20.8311 59.9169 20.7713Z" fill="#0C6DFF"/>
<path d="M18.0785 14.9697H16.2425V23.2099H13.573V14.9697H12.3887V12.8078H13.573V12.2814C13.529 11.7595 13.6042 11.2343 13.7931 10.7458C13.982 10.2572 14.2796 9.81808 14.6634 9.46155C15.6229 8.79377 16.7906 8.4935 17.9532 8.61559V10.8339C17.4843 10.7756 17.0101 10.8891 16.6185 11.1535C16.4709 11.324 16.3611 11.5238 16.2963 11.7398C16.2315 11.9559 16.2132 12.1831 16.2425 12.4067V12.8391H18.0785V14.9697Z" fill="#0C6DFF"/>
<path d="M19.7251 15.1766C20.1083 14.4023 20.701 13.751 21.4358 13.2967C22.1682 12.8671 23.0058 12.6501 23.8546 12.6701C24.5621 12.6539 25.2623 12.8155 25.8912 13.14C26.4417 13.425 26.9213 13.8297 27.2948 14.3244V12.8079H29.9455V23.2101H27.2948V21.6999C26.9306 22.2113 26.4493 22.6281 25.8912 22.9156C25.2566 23.2436 24.55 23.4073 23.8358 23.3918C22.9876 23.4003 22.1547 23.1654 21.4358 22.715C20.7046 22.2564 20.1129 21.6063 19.7251 20.8351C19.293 19.9546 19.0781 18.9834 19.0985 18.0027C19.0747 17.0238 19.2898 16.0538 19.7251 15.1766ZM26.9189 16.3735C26.6859 15.9343 26.3341 15.5695 25.9037 15.3207C25.4872 15.0778 25.0135 14.9501 24.5314 14.951C24.0564 14.9473 23.5891 15.0706 23.1778 15.3082C22.7524 15.5585 22.4036 15.9204 22.169 16.3547C21.9027 16.8533 21.7709 17.4126 21.7867 17.9777C21.7728 18.5505 21.9043 19.1175 22.169 19.6257C22.403 20.0706 22.754 20.4433 23.1841 20.7035C23.5902 20.9501 24.0563 21.0802 24.5314 21.0795C25.0142 21.0788 25.488 20.949 25.9037 20.7035C26.3341 20.4548 26.6859 20.09 26.9189 19.6508C27.1682 19.1383 27.2978 18.5758 27.2978 18.0059C27.2978 17.4359 27.1682 16.8734 26.9189 16.361V16.3735Z" fill="#0C6DFF"/>
<path d="M32.6954 11.1285C32.5501 10.9846 32.4347 10.8133 32.356 10.6245C32.2773 10.4357 32.2368 10.2333 32.2368 10.0287C32.2368 9.82421 32.2773 9.62172 32.356 9.43296C32.4347 9.24419 32.5501 9.0729 32.6954 8.92899C33.0122 8.64233 33.4243 8.4836 33.8516 8.4836C34.2788 8.4836 34.6909 8.64233 35.0077 8.92899C35.1545 9.07203 35.2713 9.24304 35.3509 9.43192C35.4306 9.6208 35.4717 9.82373 35.4717 10.0287C35.4717 10.2337 35.4306 10.4367 35.3509 10.6255C35.2713 10.8144 35.1545 10.9854 35.0077 11.1285C34.689 11.4113 34.2776 11.5674 33.8516 11.5674C33.4255 11.5674 33.0141 11.4113 32.6954 11.1285ZM35.1518 12.8079V23.21H32.52V12.8079H35.1518Z" fill="#0C6DFF"/>
<path d="M41.7012 13.1274C42.276 12.8092 42.9241 12.6472 43.5811 12.6575V15.4209H42.8793C42.2013 15.3693 41.5292 15.5776 40.9993 16.0037C40.7627 16.282 40.5852 16.6054 40.4775 16.9545C40.3697 17.3035 40.3341 17.6708 40.3727 18.034V23.21H37.7408V12.8078H40.3727V14.4371C40.6985 13.8959 41.1554 13.4454 41.7012 13.1274Z" fill="#0C6DFF"/>
</svg>
