<svg width="17" height="16" viewBox="0 0 17 16" fill="none" xmlns="http://www.w3.org/2000/svg">
<path d="M0.555298 8.00003C0.555298 3.58175 4.13702 3.05176e-05 8.5553 3.05176e-05V3.05176e-05C12.9736 3.05176e-05 16.5553 3.58175 16.5553 8.00003V8.00003C16.5553 12.4183 12.9736 16 8.5553 16V16C4.13702 16 0.555298 12.4183 0.555298 8.00003V8.00003Z" fill="#0C6DFF"/>
<path d="M5.83069 12H11.3385V11.0625H7.29553V10.9922L9.24084 8.98831C10.7408 7.44144 11.1803 6.70316 11.1862 5.75394C11.1803 4.43558 10.0905 3.39847 8.54944 3.39847C7.01428 3.39847 5.85413 4.40628 5.86584 5.90628H6.86194C6.8678 4.95706 7.50061 4.31839 8.51428 4.31253C9.46936 4.31839 10.1959 4.88089 10.2018 5.75394C10.1959 6.53909 9.71545 7.11331 8.7135 8.17972L5.81897 11.2266L5.83069 12Z" fill="white"/>
</svg>
